<svg width="22" height="22" viewBox="0 0 22 22" fill="none" xmlns="http://www.w3.org/2000/svg">
<rect x="1" y="1" width="20" height="20" rx="4" fill="#5055B1"/>
<path d="M9.99754 15C9.73169 14.9999 9.47675 14.8944 9.28879 14.7065L6.2814 11.7017C6.0988 11.5128 5.99775 11.2598 6.00004 10.9971C6.00232 10.7345 6.10775 10.4833 6.29362 10.2976C6.47948 10.1119 6.73091 10.0066 6.99375 10.0043C7.2566 10.002 7.50982 10.1029 7.69889 10.2854L9.99754 12.5811L14.3011 8.28117C14.4902 8.09871 14.7434 7.99776 15.0062 8.00004C15.2691 8.00232 15.5205 8.10766 15.7064 8.29337C15.8923 8.47907 15.9977 8.73029 16 8.99291C16.0022 9.25553 15.9012 9.50854 15.7186 9.69745L10.7063 14.7055C10.6133 14.7987 10.5028 14.8727 10.3812 14.9232C10.2596 14.9738 10.1292 14.9998 9.99754 15Z" fill="white"/>
</svg>
